HIERARCHY
ROOT Hips
{
	OFFSET 0.000000 0.000000 0.000000
	CHANNELS 6 Xposition Yposition Zposition Zrotation Yrotation Xrotation 
	JOINT LowerBack
	{
		OFFSET 0.000000 0.000000 0.000000
		CHANNELS 3 Zrotation Yrotation Xrotation
		JOINT Spine
		{
			OFFSET 0.028270 2.035590 -0.193380
			CHANNELS 3 Zrotation Yrotation Xrotation
			JOINT Spine1
			{
				OFFSET 0.056720 2.048850 -0.042750
				CHANNELS 3 Zrotation Yrotation Xrotation
				JOINT Neck
				{
					OFFSET 0.000000 0.000000 0.000000
					CHANNELS 3 Zrotation Yrotation Xrotation
					JOINT Neck1
					{
						OFFSET -0.054170 1.746240 0.172020
						CHANNELS 3 Zrotation Yrotation Xrotation
						JOINT Head
						{
							OFFSET 0.104070 1.761360 -0.123970
							CHANNELS 3 Zrotation Yrotation Xrotation
							End Site
							{
								OFFSET 0.000000 0.000000 0.000000
							}
						}
					}
				}
				JOINT LeftShoulder
				{
					OFFSET 0.000000 0.000000 0.000000
					CHANNELS 3 Zrotation Yrotation Xrotation
					JOINT LeftArm
					{
						OFFSET 3.362410 1.200890 -0.311210
						CHANNELS 3 Zrotation Yrotation Xrotation
						JOINT LeftForeArm
						{
							OFFSET 4.983000 -0.000000 -0.000000
							CHANNELS 3 Zrotation Yrotation Xrotation
							JOINT LeftHand
							{
								OFFSET 3.483560 -0.000000 -0.000000
								CHANNELS 3 Zrotation Yrotation Xrotation
								JOINT LeftFingerBase
								{
									OFFSET 0.000000 0.000000 0.000000
									CHANNELS 3 Zrotation Yrotation Xrotation
									JOINT LeftHandIndex1
									{
										OFFSET 0.715260 -0.000000 -0.000000
										CHANNELS 3 Zrotation Yrotation Xrotation
										End Site
										{
											OFFSET 0.000000 0.000000 0.000000
										}
									}
								}
								JOINT LThumb
								{
									OFFSET 0.000000 0.000000 0.000000
									CHANNELS 3 Zrotation Yrotation Xrotation
									End Site
									{
										OFFSET 0.000000 0.000000 0.000000
									}
								}
							}
						}
					}
				}
				JOINT RightShoulder
				{
					OFFSET 0.000000 0.000000 0.000000
					CHANNELS 3 Zrotation Yrotation Xrotation
					JOINT RightArm
					{
						OFFSET -3.136600 1.374050 -0.404650
						CHANNELS 3 Zrotation Yrotation Xrotation
						JOINT RightForeArm
						{
							OFFSET -5.241900 -0.000000 -0.000000
							CHANNELS 3 Zrotation Yrotation Xrotation
							JOINT RightHand
							{
								OFFSET -3.444170 -0.000000 -0.000000
								CHANNELS 3 Zrotation Yrotation Xrotation
								JOINT RightFingerBase
								{
									OFFSET 0.000000 0.000000 0.000000
									CHANNELS 3 Zrotation Yrotation Xrotation
									JOINT RightHandIndex1
									{
										OFFSET -0.622530 -0.000000 -0.000000
										CHANNELS 3 Zrotation Yrotation Xrotation
										End Site
										{
											OFFSET 0.000000 0.000000 0.000000
										}
									}
								}
								JOINT RThumb
								{
									OFFSET 0.000000 0.000000 0.000000
									CHANNELS 3 Zrotation Yrotation Xrotation
									End Site
									{
										OFFSET 0.000000 0.000000 0.000000
									}
								}
							}
						}
					}
				}
			}
		}
	}
}
}
MOTION
Frames: 6
Frame Time: 0.008333
-1.223323 16.519907 1.566461 13.184819 36.856985 22.338829 -1.624438 -4.415363 -2.404570 -0.756553 -4.428636 -3.058235 -6.168297 -4.521099 1.376478 8.098978 -8.458975 -7.514950 -3.713604 -0.283357 0.020185 0.000000 0.000000 0.000000 -4.618661 5.654121 1.982450 -41.584521 -0.370400 1.387540 -1.768086 -60.523486 -0.019527 11.252224 0.858824 0.077481 -0.190610 0.102373 -0.000000 0.000000 0.000000 0.000000 0.000000 0.000000 0.000000 15.774623 -7.997217 1.306447 59.903084 -4.177504 -16.719387 3.910579 5.705012 0.003992 -3.818977 2.669606 -0.093639 0.140418 -0.043124 -0.000000 0.000000 0.000000 0.000000 0.000000 0.000000 0.000000 
-1.117894 16.504563 1.687451 12.380666 35.517746 22.068380 -1.269639 -4.194910 -2.642581 -0.709262 -4.240445 -3.125398 -6.215272 -4.336396 1.345893 8.148639 -8.018123 -7.482301 -3.748735 -0.286549 0.028383 0.000000 0.000000 0.000000 -4.638576 5.857141 1.994986 -42.242386 0.074560 1.647741 -1.834454 -59.548687 -0.017918 11.193641 0.904535 0.082447 -0.188190 0.093670 -0.000000 0.000000 0.000000 0.000000 0.000000 0.000000 0.000000 15.874619 -7.423625 1.343585 59.960807 -3.053803 -16.613256 3.896255 5.584246 0.003875 -3.850260 2.745062 -0.097030 0.139035 -0.046574 -0.000000 0.000000 0.000000 0.000000 0.000000 0.000000 0.000000 
-1.019704 16.493027 1.808397 11.613033 34.082559 21.873008 -0.988544 -3.975686 -2.879714 -0.678095 -4.049496 -3.191180 -6.266202 -4.149284 1.313490 8.227388 -7.516222 -7.442121 -3.783082 -0.289701 0.037846 0.000000 0.000000 0.000000 -4.598697 6.078593 2.014000 -42.963319 0.565225 1.934619 -1.908400 -58.456655 -0.016245 11.092686 0.960678 0.088107 -0.185442 0.084699 -0.000000 0.000000 0.000000 0.000000 0.000000 0.000000 0.000000 15.991160 -6.780518 1.384628 60.123506 -1.799971 -16.554637 3.871996 5.458793 0.003818 -3.872795 2.873081 -0.102218 0.137105 -0.050664 -0.000000 0.000000 0.000000 0.000000 0.000000 0.000000 0.000000 
-0.928909 16.485507 1.929722 10.901274 32.576863 21.752740 -0.791009 -3.765297 -3.111872 -0.664290 -3.862289 -3.254212 -6.320185 -3.966283 1.280670 8.332155 -6.983552 -7.396775 -3.816227 -0.292763 0.048034 0.000000 0.000000 0.000000 -4.510163 6.298057 2.039987 -43.722498 1.114307 2.248289 -1.989686 -57.259766 -0.014507 10.926786 1.030221 0.094359 -0.182237 0.075427 -0.000000 0.000000 0.000000 0.000000 0.000000 0.000000 0.000000 16.126436 -6.103114 1.427980 60.391732 -0.411056 -16.466179 3.838147 5.353734 0.003813 -3.880353 3.045041 -0.108505 0.134652 -0.055215 -0.000000 0.000000 0.000000 0.000000 0.000000 0.000000 0.000000 
-0.845409 16.482061 2.051877 10.260948 31.028993 21.701927 -0.681686 -3.569660 -3.336308 -0.668118 -3.683947 -3.314070 -6.375975 -3.792591 1.246698 8.454624 -6.412217 -7.341982 -3.848643 -0.295796 0.060017 0.000000 0.000000 0.000000 -4.385365 6.522877 2.076180 -44.496767 1.685303 2.607684 -2.081413 -55.939247 -0.012732 10.676527 1.113591 0.101006 -0.178690 0.065982 -0.000000 0.000000 0.000000 0.000000 0.000000 0.000000 0.000000 16.275239 -5.385506 1.469332 60.774913 1.070195 -16.408909 3.796092 5.291800 0.003892 -3.838462 3.266783 -0.115087 0.131553 -0.060283 -0.000000 0.000000 0.000000 0.000000 0.000000 0.000000 0.000000 
-0.768696 16.482620 2.175295 9.699549 29.467710 21.711276 -0.657543 -3.392433 -3.552839 -0.688443 -3.517920 -3.370661 -6.432309 -3.631651 1.211988 8.586964 -5.824313 -7.278163 -3.880524 -0.298819 0.073809 0.000000 0.000000 0.000000 -4.241105 6.740668 2.122176 -45.265487 2.272099 3.020897 -2.184374 -54.501255 -0.010951 10.321801 1.213388 0.107748 -0.174809 0.056365 -0.000000 0.000000 0.000000 0.000000 0.000000 0.000000 0.000000 16.435836 -4.652688 1.505817 61.268478 2.622852 -16.323620 3.748247 5.305780 0.004058 -3.727204 3.522801 -0.120567 0.127826 -0.065669 0.000000 0.000000 0.000000 0.000000 0.000000 0.000000 0.000000 
